<?xml version="1.0" encoding="UTF-8" standalone="no"?>
<svg
   xmlns:dc="http://purl.org/dc/elements/1.1/"
   xmlns:cc="http://creativecommons.org/ns#"
   xmlns:rdf="http://www.w3.org/1999/02/22-rdf-syntax-ns#"
   xmlns:svg="http://www.w3.org/2000/svg"
   xmlns="http://www.w3.org/2000/svg"
   viewBox="0 0 311.06812 435.35999"
   height="435.35999"
   width="311.06812"
   xml:space="preserve"
   id="svg2"
   version="1.1"><metadata
     id="metadata8"><rdf:RDF><cc:Work
         rdf:about=""><dc:format>image/svg+xml</dc:format><dc:type
           rdf:resource="http://purl.org/dc/dcmitype/StillImage" /></cc:Work></rdf:RDF></metadata><defs
     id="defs6"><linearGradient
       id="linearGradient18"
       spreadMethod="pad"
       gradientUnits="userSpaceOnUse"
       y2="295.86105"
       x2="174.47269"
       y1="113.86177"
       x1="148.16621"><stop
         id="stop12"
         offset="0"
         style="stop-opacity:1;stop-color:#fb3500" /><stop
         id="stop14"
         offset="0.446146"
         style="stop-opacity:1;stop-color:#ffa802" /><stop
         id="stop16"
         offset="1"
         style="stop-opacity:1;stop-color:#fb3500" /></linearGradient><linearGradient
       id="linearGradient26"
       spreadMethod="pad"
       gradientUnits="userSpaceOnUse"
       y2="65.329559"
       x2="209.65405"
       y1="29.566013"
       x1="20.526114"><stop
         id="stop22"
         offset="0"
         style="stop-opacity:1;stop-color:#003a9a" /><stop
         id="stop24"
         offset="1"
         style="stop-opacity:1;stop-color:#034db6" /></linearGradient><linearGradient
       id="linearGradient34"
       spreadMethod="pad"
       gradientUnits="userSpaceOnUse"
       y2="38.98439"
       x2="100.36845"
       y1="215.33835"
       x1="119.52939"><stop
         id="stop30"
         offset="0"
         style="stop-opacity:1;stop-color:#0054b4" /><stop
         id="stop32"
         offset="1"
         style="stop-opacity:1;stop-color:#001e68" /></linearGradient><linearGradient
       id="linearGradient42"
       spreadMethod="pad"
       gradientUnits="userSpaceOnUse"
       y2="203.99149"
       x2="209.75449"
       y1="71.297783"
       x1="167.81108"><stop
         id="stop38"
         offset="0"
         style="stop-opacity:1;stop-color:#fb3500" /><stop
         id="stop40"
         offset="1"
         style="stop-opacity:1;stop-color:#ffa802" /></linearGradient><linearGradient
       id="linearGradient50"
       spreadMethod="pad"
       gradientUnits="userSpaceOnUse"
       y2="23.25918"
       x2="101.41421"
       y1="133.62595"
       x1="73.827286"><stop
         id="stop46"
         offset="0"
         style="stop-opacity:1;stop-color:#00adf4" /><stop
         id="stop48"
         offset="1"
         style="stop-opacity:1;stop-color:#003ca1" /></linearGradient></defs><g
     transform="matrix(1.3333333,0,0,-1.3333333,0,435.36)"
     id="g10"><path
       id="path20"
       style="fill:url(#linearGradient18);fill-opacity:1;fill-rule:evenodd;stroke:none"
       d="m 131.06136,127.2086 c -0.42993,-0.59265 -0.84749,-1.1942 -1.25245,-1.80422 -0.13467,-0.24909 -0.2435,-0.5113 -0.32481,-0.78253 -0.42995,-1.38227 -0.45439,-1.44215 -0.90626,-3.14325 -0.95315,-3.6734 -1.82149,-7.36828 -2.6043,-11.08171 -0.48968,-2.27892 -1.61062,-7.61087 -1.66314,-9.30694 -0.0325,-2.028367 -0.0761,-4.056536 -0.13087,-6.08442 -0.1989,-8.017266 -0.41954,-15.635361 1.22424,-23.613562 0.98407,-4.776238 2.46842,-8.629509 4.46268,-13.317722 1.7413,-4.088099 3.55719,-8.144024 5.44677,-12.165742 -0.44689,-0.03422 -0.76522,-0.0289 -1.21142,-7.95e-4 -0.5526,0.03481 -0.91833,0.293441 -1.30483,0.752474 -0.6988,0.779564 -1.41587,1.542549 -2.15063,2.288333 -2.94152,2.993432 -6.64962,6.70213 -9.09869,9.960977 -2.87897,3.830904 -5.6135,10.940323 -7.02052,15.135415 -1.43211,4.269907 -2.62764,8.67242 -3.42008,13.090045 -0.0617,0.344137 -0.22936,1.282628 -0.28605,1.484757 l -0.0666,0.193985 c -0.0114,0.02576 -0.028,0.04888 -0.0487,0.06794 -0.0189,0.01556 -0.043,0.02354 -0.0674,0.02239 0,0 -0.34071,-8e-6 -0.34071,-8e-6 -0.26714,6.245716 -0.37164,12.868633 -0.24324,19.051083 0.0344,1.8799 0.11538,3.75865 0.24296,5.63452 0.80729,11.55563 6.27356,27.40974 10.49966,37.31912 1.9337,4.53416 5.38475,11.07419 7.57887,15.15875 2.17204,4.04039 4.35976,8.07233 6.56311,12.09574 2.55826,4.6658 5.08401,9.34935 7.57708,14.05029 2.25697,4.26197 5.03222,9.7432 6.77853,13.69059 3.92337,8.86844 6.96021,18.64005 8.95076,27.93826 1.84325,8.59684 2.94213,17.33655 3.28445,26.1221 0.63749,16.42486 -1.51384,33.61369 -7.48572,48.92531 -1.91237,4.90321 -5.25194,12.39406 -7.67867,17.63023 2.93626,-2.83446 5.83336,-5.70919 8.69049,-8.6234 0.71302,-0.7652 1.3965,-1.55741 2.04889,-2.37486 1.37744,-1.69895 2.72855,-3.41909 4.05284,-5.15977 2.99095,-3.92117 5.23005,-6.94646 8.11784,-10.96844 1.25334,-1.7456 3.68695,-5.20472 4.52994,-6.74629 1.33455,-2.51267 2.61442,-5.054 3.83869,-7.62221 2.76909,-5.78821 5.38318,-11.56516 7.79427,-17.50286 0.4902,-1.19449 0.94586,-2.40286 1.36643,-3.62361 4.922,-14.38377 7.10687,-30.69434 6.68453,-45.72275 -0.38003,-13.52272 -3.06708,-28.35921 -9.50996,-40.22608 -4.77068,-8.78691 -13.83435,-22.1358 -18.99527,-29.50561 2.47468,0.98572 4.91352,2.05912 7.31191,3.21817 6.22761,3.10373 13.78587,10.22554 17.74601,15.24667 3.14453,3.987 5.92458,9.52706 8.05737,15.28603 l 1.65595,0.0127 c 17.07669,2.03606 12.12945,-27.5731 12.12945,-27.5731 -5.0004,-44.90742 -48.59804,-44.17835 -48.59804,-44.17835 -25.04735,1.70347 -31.02716,18.00254 -31.02716,18.00254 0,0 -0.76818,-0.65749 -1.19811,-1.25015 z" /><path
       id="path28"
       style="fill:url(#linearGradient26);fill-opacity:1;fill-rule:evenodd;stroke:none"
       d="m 140.29992,28.673303 c -1.25488,-0.325535 -2.51948,-0.612408 -3.792,-0.86021 -6.03449,-1.19608 -12.13049,-2.20164 -18.21032,-3.114358 -2.3733,-0.359284 -4.75197,-0.681979 -7.1352,-0.967973 -1.11557,-0.140771 -2.23562,-0.243085 -3.35819,-0.306764 -7.65487,-0.314488 -15.322594,-0.06799 -22.941564,0.737524 -3.997019,0.427173 -7.973029,1.032224 -11.916193,1.813354 -8.219255,1.625691 -16.254643,4.087439 -23.878575,7.574251 -7.883959,3.605735 -15.197741,8.377501 -21.43838,14.415283 -5.07519,4.910216 -8.798191,10.076177 -12.356933,16.359276 -1.118712,1.972177 -2.152591,3.991274 -3.098808,6.051767 -0.931361,2.018398 -1.73807,4.091997 -2.41559,6.209135 C 9.013723,78.921912 8.457155,81.424355 8.32031,83.90206 8.192627,86.213883 8.228377,89.553067 8.321348,92.014988 7.443602,90.588158 6.605165,89.137517 5.806983,87.664702 3.686476,83.686465 2.1874,78.014828 1.330872,73.244121 0.448837,68.331342 -0.153416,62.602814 0.034395,57.572012 0.069487,56.568121 0.160391,55.566925 0.306684,54.573097 1.442691,47.114208 4.247312,40.007881 8.511556,33.783636 c 2.267564,-3.2989 4.88197,-6.345405 7.798481,-9.087388 3.21758,-3.020159 6.717095,-5.725116 10.45059,-8.077805 3.611097,-2.28025 7.383643,-4.294193 11.287631,-6.02581 C 42.344322,8.685369 46.758532,7.056195 51.263589,5.715187 60.782036,2.878005 70.646826,1.145 80.556417,0.411597 c 7.364509,-0.548796 14.759654,-0.548796 22.124173,0 1.5503,0.138012 3.09598,0.322737 4.63504,0.553932 7.12075,1.042939 13.79154,2.199565 20.91683,3.537049 3.24246,0.608641 8.63344,1.67035 11.32135,2.4087 9.23941,2.591496 18.2494,5.940428 26.9384,10.012757 4.57324,2.149651 9.03886,4.521162 13.38094,7.106076 18.63875,11.090827 34.76115,26.309031 44.73413,45.686899 2.77114,5.387709 5.01287,11.031628 6.69369,16.852402 1.14888,4.01065 2.00102,10.724048 2.00011,15.215698 -8.3e-4,4.10873 -0.33058,10.71532 -0.62634,15.16642 -1.84523,-5.61963 -4.5941,-13.54145 -6.63691,-18.538424 -7.03925,-17.218925 -20.49758,-32.694571 -34.78929,-44.240151 -5.78297,-4.686137 -11.9565,-8.868546 -18.453,-12.501422 -1.69645,-0.927796 -6.04393,-2.792033 -8.23494,-3.707978 -4.96205,-2.074368 -9.2331,-3.78411 -14.23776,-5.715698 -2.89617,-1.117801 -7.43796,-2.821252 -10.02292,-3.574554 z" /><path
       id="path36"
       style="fill:url(#linearGradient34);fill-opacity:1;fill-rule:evenodd;stroke:none"
       d="m 124.76257,41.396353 c -0.0517,0.09819 -0.11401,0.19041 -0.18583,0.275004 -0.14596,0.172206 -0.30356,0.334204 -0.47169,0.48485 -0.32665,0.294153 -0.66313,0.57723 -1.00886,0.848735 l -2.74154,2.139001 c -0.94631,0.74331 -1.87504,1.508731 -2.78542,2.295631 -1.78806,1.536539 -3.46231,3.200727 -5.00959,4.979481 -2.81995,3.264953 -5.45789,7.351585 -7.4497,11.334704 -4.45024,8.899323 -7.109861,18.827107 -8.297857,28.740742 -0.682827,5.617782 -0.849957,11.286269 -0.4993,16.934509 1.29187,19.82796 8.272927,41.45338 17.997617,59.47195 3.77253,6.96432 7.68494,13.85199 11.73483,20.65878 2.28727,3.83899 4.53615,7.70072 6.7463,11.58462 7.15863,12.61555 11.09222,22.90343 14.51669,36.50239 1.35681,5.38802 2.44372,10.60405 2.99992,16.06964 0.63641,6.25374 0.59164,12.8464 0.0262,19.18078 -0.2977,3.35834 -0.76005,6.70005 -1.38538,10.01306 -0.69026,3.72844 -1.65653,7.40048 -2.89081,10.98579 -1.33377,3.85341 -2.9297,8.11275 -4.53328,11.91657 -0.53469,1.27007 -1.10193,2.52619 -1.70115,3.76712 -0.36868,0.76427 -0.76372,1.51554 -1.18443,2.25245 -0.44482,0.77939 -0.78426,1.29178 -1.33333,1.93967 -0.21589,0.26696 -0.48972,0.48125 -0.80075,0.62662 -0.20607,0.0919 -0.86805,0.28314 -1.1252,0.14098 -0.27567,-0.15239 0.18905,-5.94431 0.34264,-7.71247 0.35301,-4.06376 0.75145,-8.70624 0.57233,-12.94303 -0.36708,-8.6831 -3.85504,-18.47296 -7.65146,-26.4111 -2.15374,-4.49926 -4.5696,-8.86829 -7.23514,-13.08456 -1.44411,-2.29122 -2.96256,-4.53472 -4.55293,-6.72694 -1.81367,-2.51445 -3.75157,-4.93689 -5.8065,-7.2583 -1.4029,-1.52185 -2.85099,-3.0016 -4.34224,-4.43717 -4.21105,-4.08333 -8.415262,-8.05185 -12.69683,-12.03535 -4.961372,-4.61557 -9.933771,-9.21928 -14.917154,-13.81108 l -12.96416,-11.97554 c -2.801471,-2.5934 -5.595123,-5.19522 -8.380925,-7.80544 -2.78833,-2.60122 -5.548214,-5.23278 -8.279159,-7.89418 l -1.777387,-1.76686 c -0.736874,-0.73276 -1.449456,-1.48954 -2.136589,-2.26913 -5.814613,-6.77123 -10.836654,-14.18455 -14.968447,-22.09578 -2.155059,-4.13869 -4.029153,-8.41772 -5.609582,-12.80807 -4.964783,-13.77914 -6.714752,-28.52283 -4.004638,-42.98639 0.901665,-4.798629 2.279232,-9.495462 4.112286,-14.020906 2.006863,-4.937024 4.510022,-9.657421 7.470938,-14.088514 3.336269,-5.002561 7.349203,-9.519041 11.924464,-13.420753 5.069332,-4.328027 10.79609,-7.956612 16.834013,-10.810576 6.160928,-2.912104 12.841722,-5.157853 19.541138,-6.659515 7.535033,-1.686376 15.228953,-2.561191 22.950232,-2.609491 2.92144,0.0018 6.83291,0.318055 9.78723,0.581908 2.63875,0.228616 5.2713,0.523814 7.89514,0.885313 0.67233,0.09708 2.40359,0.350434 3.08647,0.577652 0.0748,0.0249 0.19423,0.07068 0.24018,0.142586 0.0209,0.103103 0.003,0.210287 -0.0514,0.300609 z" /><path
       id="path44"
       style="fill:url(#linearGradient42);fill-opacity:1;fill-rule:evenodd;stroke:none"
       d="m 198.21276,182.46245 c 2.29642,6.20065 3.72597,12.38758 4.07659,17.42977 0.54506,7.83843 -0.39029,22.61332 -1.00269,30.33171 5.35617,-10.21154 12.65848,-24.78386 16.5152,-34.06915 3.95123,-9.58405 6.61611,-19.64907 7.92517,-29.93266 1.20843,-9.30057 1.28458,-18.71337 0.22676,-28.03228 -1.54673,-13.55734 -5.7204,-26.94518 -12.88088,-38.612504 -3.69731,-6.024416 -8.10154,-11.341468 -13.25134,-16.28433 -1.9933,-1.913828 -4.08986,-3.717127 -6.28026,-5.401801 -2.2048,-1.69871 -4.52356,-3.244133 -6.93995,-4.625377 -2.2091,-1.263995 -4.51659,-2.347695 -6.89999,-3.24055 -2.46644,-0.926908 -5.02586,-1.584455 -7.63365,-1.961183 -7.06135,-1.015398 -13.7975,0.489039 -19.7708,4.342466 -6.19565,3.996865 -11.28024,8.966355 -14.81442,15.580069 -1.65227,3.109448 -2.96404,6.388185 -3.91248,9.779208 -0.8512,3.017562 -1.51661,6.084472 -1.99246,9.183472 -0.2207,1.18001 -0.31528,2.38014 -0.28215,3.58015 l 0.009,17.01443 0.29975,0.29475 0.65539,0.61995 c 0,0 5.97981,-16.29907 31.02716,-18.00254 0,0 43.59764,-0.72907 48.59804,44.17834 0,0 4.94724,29.60917 -12.12945,27.5731 -0.85625,-0.10209 -1.62749,0.0254 -1.54246,0.25496 z" /><path
       id="path52"
       style="fill:url(#linearGradient50);fill-opacity:1;fill-rule:evenodd;stroke:none"
       d="m 115.466,41.327372 c 0,0 -41.985269,16.282457 -44.95951,87.912078 0,0 -3.222094,53.04063 33.70806,91.70575 0,0 -64.993753,-50.59149 -63.450465,-105.08983 0,0 -4.341839,-75.17568 74.701915,-74.527998 z" /></g></svg>