<?xml version="1.0" encoding="UTF-8" standalone="no"?>
<svg
   xmlns:dc="http://purl.org/dc/elements/1.1/"
   xmlns:cc="http://creativecommons.org/ns#"
   xmlns:rdf="http://www.w3.org/1999/02/22-rdf-syntax-ns#"
   xmlns:svg="http://www.w3.org/2000/svg"
   xmlns="http://www.w3.org/2000/svg"
   viewBox="0 0 1125.665 435.35999"
   height="435.35999"
   width="1125.665"
   xml:space="preserve"
   id="svg2"
   version="1.1"><metadata
     id="metadata8"><rdf:RDF><cc:Work
         rdf:about=""><dc:format>image/svg+xml</dc:format><dc:type
           rdf:resource="http://purl.org/dc/dcmitype/StillImage" /></cc:Work></rdf:RDF></metadata><defs
     id="defs6"><linearGradient
       id="linearGradient18"
       spreadMethod="pad"
       gradientUnits="userSpaceOnUse"
       y2="295.86105"
       x2="174.47269"
       y1="113.86177"
       x1="148.16621"><stop
         id="stop12"
         offset="0"
         style="stop-opacity:1;stop-color:#fb3500" /><stop
         id="stop14"
         offset="0.446146"
         style="stop-opacity:1;stop-color:#ffa802" /><stop
         id="stop16"
         offset="1"
         style="stop-opacity:1;stop-color:#fb3500" /></linearGradient><linearGradient
       id="linearGradient28"
       spreadMethod="pad"
       gradientUnits="userSpaceOnUse"
       y2="65.329559"
       x2="209.65405"
       y1="29.566013"
       x1="20.526114"><stop
         id="stop24"
         offset="0"
         style="stop-opacity:1;stop-color:#003a9a" /><stop
         id="stop26"
         offset="1"
         style="stop-opacity:1;stop-color:#034db6" /></linearGradient><linearGradient
       id="linearGradient36"
       spreadMethod="pad"
       gradientUnits="userSpaceOnUse"
       y2="38.98439"
       x2="100.36845"
       y1="215.33835"
       x1="119.52939"><stop
         id="stop32"
         offset="0"
         style="stop-opacity:1;stop-color:#0054b4" /><stop
         id="stop34"
         offset="1"
         style="stop-opacity:1;stop-color:#001e68" /></linearGradient><linearGradient
       id="linearGradient44"
       spreadMethod="pad"
       gradientUnits="userSpaceOnUse"
       y2="253.0414"
       x2="573.88599"
       y1="83.388046"
       x1="575.39075"><stop
         id="stop40"
         offset="0"
         style="stop-opacity:1;stop-color:#001e68" /><stop
         id="stop42"
         offset="1"
         style="stop-opacity:1;stop-color:#0054b4" /></linearGradient><linearGradient
       id="linearGradient52"
       spreadMethod="pad"
       gradientUnits="userSpaceOnUse"
       y2="253.0414"
       x2="573.88599"
       y1="83.388046"
       x1="575.39075"><stop
         id="stop48"
         offset="0"
         style="stop-opacity:1;stop-color:#001e68" /><stop
         id="stop50"
         offset="1"
         style="stop-opacity:1;stop-color:#0054b4" /></linearGradient><linearGradient
       id="linearGradient60"
       spreadMethod="pad"
       gradientUnits="userSpaceOnUse"
       y2="253.0414"
       x2="573.88599"
       y1="83.388046"
       x1="575.39075"><stop
         id="stop56"
         offset="0"
         style="stop-opacity:1;stop-color:#001e68" /><stop
         id="stop58"
         offset="1"
         style="stop-opacity:1;stop-color:#0054b4" /></linearGradient><linearGradient
       id="linearGradient68"
       spreadMethod="pad"
       gradientUnits="userSpaceOnUse"
       y2="253.0414"
       x2="573.88599"
       y1="83.388046"
       x1="575.39075"><stop
         id="stop64"
         offset="0"
         style="stop-opacity:1;stop-color:#001e68" /><stop
         id="stop66"
         offset="1"
         style="stop-opacity:1;stop-color:#0054b4" /></linearGradient><linearGradient
       id="linearGradient76"
       spreadMethod="pad"
       gradientUnits="userSpaceOnUse"
       y2="253.0414"
       x2="573.88599"
       y1="83.388046"
       x1="575.39075"><stop
         id="stop72"
         offset="0"
         style="stop-opacity:1;stop-color:#001e68" /><stop
         id="stop74"
         offset="1"
         style="stop-opacity:1;stop-color:#0054b4" /></linearGradient><linearGradient
       id="linearGradient84"
       spreadMethod="pad"
       gradientUnits="userSpaceOnUse"
       y2="253.0414"
       x2="573.88599"
       y1="83.388046"
       x1="575.39075"><stop
         id="stop80"
         offset="0"
         style="stop-opacity:1;stop-color:#001e68" /><stop
         id="stop82"
         offset="1"
         style="stop-opacity:1;stop-color:#0054b4" /></linearGradient><linearGradient
       id="linearGradient92"
       spreadMethod="pad"
       gradientUnits="userSpaceOnUse"
       y2="253.0414"
       x2="573.88599"
       y1="83.388046"
       x1="575.39075"><stop
         id="stop88"
         offset="0"
         style="stop-opacity:1;stop-color:#001e68" /><stop
         id="stop90"
         offset="1"
         style="stop-opacity:1;stop-color:#0054b4" /></linearGradient><linearGradient
       id="linearGradient100"
       spreadMethod="pad"
       gradientUnits="userSpaceOnUse"
       y2="253.0414"
       x2="573.88599"
       y1="83.388046"
       x1="575.39075"><stop
         id="stop96"
         offset="0"
         style="stop-opacity:1;stop-color:#001e68" /><stop
         id="stop98"
         offset="1"
         style="stop-opacity:1;stop-color:#0054b4" /></linearGradient><linearGradient
       id="linearGradient134"
       spreadMethod="pad"
       gradientUnits="userSpaceOnUse"
       y2="203.99149"
       x2="209.75449"
       y1="71.297783"
       x1="167.81108"><stop
         id="stop130"
         offset="0"
         style="stop-opacity:1;stop-color:#fb3500" /><stop
         id="stop132"
         offset="1"
         style="stop-opacity:1;stop-color:#ffa802" /></linearGradient><linearGradient
       id="linearGradient142"
       spreadMethod="pad"
       gradientUnits="userSpaceOnUse"
       y2="23.25918"
       x2="101.41421"
       y1="133.62595"
       x1="73.827286"><stop
         id="stop138"
         offset="0"
         style="stop-opacity:1;stop-color:#00adf4" /><stop
         id="stop140"
         offset="1"
         style="stop-opacity:1;stop-color:#003ca1" /></linearGradient></defs><g
     transform="matrix(1.3333333,0,0,-1.3333333,0,435.36)"
     id="g10"><path
       id="path20"
       style="fill:url(#linearGradient18);fill-opacity:1;fill-rule:evenodd;stroke:none"
       d="m 131.06136,127.2086 c -0.42993,-0.59265 -0.84749,-1.1942 -1.25245,-1.80422 -0.13467,-0.24909 -0.2435,-0.5113 -0.32481,-0.78253 -0.42995,-1.38227 -0.45439,-1.44215 -0.90626,-3.14325 -0.95315,-3.6734 -1.82149,-7.36828 -2.6043,-11.08171 -0.48968,-2.27892 -1.61062,-7.61087 -1.66314,-9.30694 -0.0325,-2.028367 -0.0761,-4.056536 -0.13087,-6.08442 -0.1989,-8.017266 -0.41954,-15.635361 1.22424,-23.613562 0.98407,-4.776238 2.46842,-8.629509 4.46268,-13.317722 1.7413,-4.088099 3.55719,-8.144024 5.44677,-12.165742 -0.44689,-0.03422 -0.76522,-0.0289 -1.21142,-7.95e-4 -0.5526,0.03481 -0.91833,0.293441 -1.30483,0.752474 -0.6988,0.779564 -1.41587,1.542549 -2.15063,2.288333 -2.94152,2.993432 -6.64962,6.70213 -9.09869,9.960977 -2.87897,3.830904 -5.6135,10.940323 -7.02052,15.135415 -1.43211,4.269907 -2.62764,8.67242 -3.42008,13.090045 -0.0617,0.344137 -0.22936,1.282628 -0.28605,1.484757 l -0.0666,0.193985 c -0.0114,0.02576 -0.028,0.04888 -0.0487,0.06794 -0.0189,0.01556 -0.043,0.02354 -0.0674,0.02239 0,0 -0.34071,-8e-6 -0.34071,-8e-6 -0.26714,6.245716 -0.37164,12.868633 -0.24324,19.051083 0.0344,1.8799 0.11538,3.75865 0.24296,5.63452 0.80729,11.55563 6.27356,27.40974 10.49966,37.31912 1.9337,4.53416 5.38475,11.07419 7.57887,15.15875 2.17204,4.04039 4.35976,8.07233 6.56311,12.09574 2.55826,4.6658 5.08401,9.34935 7.57708,14.05029 2.25697,4.26197 5.03222,9.7432 6.77853,13.69059 3.92337,8.86844 6.96021,18.64005 8.95076,27.93826 1.84325,8.59684 2.94213,17.33655 3.28445,26.1221 0.63749,16.42486 -1.51384,33.61369 -7.48572,48.92531 -1.91237,4.90321 -5.25194,12.39406 -7.67867,17.63023 2.93626,-2.83446 5.83336,-5.70919 8.69049,-8.6234 0.71302,-0.7652 1.3965,-1.55741 2.04889,-2.37486 1.37744,-1.69895 2.72855,-3.41909 4.05284,-5.15977 2.99095,-3.92117 5.23005,-6.94646 8.11784,-10.96844 1.25334,-1.7456 3.68695,-5.20472 4.52994,-6.74629 1.33455,-2.51267 2.61442,-5.054 3.83869,-7.62221 2.76909,-5.78821 5.38318,-11.56516 7.79427,-17.50286 0.4902,-1.19449 0.94586,-2.40286 1.36643,-3.62361 4.922,-14.38377 7.10687,-30.69434 6.68453,-45.72275 -0.38003,-13.52272 -3.06708,-28.35921 -9.50996,-40.22608 -4.77068,-8.78691 -13.83435,-22.1358 -18.99527,-29.50561 2.47468,0.98572 4.91352,2.05912 7.31191,3.21817 6.22761,3.10373 13.78587,10.22554 17.74601,15.24667 3.14453,3.987 5.92458,9.52706 8.05737,15.28603 l 1.65595,0.0127 c 17.07669,2.03606 12.12945,-27.5731 12.12945,-27.5731 -5.0004,-44.90742 -48.59804,-44.17835 -48.59804,-44.17835 -25.04735,1.70347 -31.02716,18.00254 -31.02716,18.00254 0,0 -0.76818,-0.65749 -1.19811,-1.25015 z" /><path
       id="path22"
       style="fill:#fc3c00;fill-opacity:1;fill-rule:evenodd;stroke:none"
       d="m 230.92422,48.921829 c -0.50581,0.0195 -1.0123,-0.01188 -1.51184,-0.09367 -0.53423,-0.09372 -0.93467,-0.423882 -1.34086,-0.74423 -0.35555,-0.263397 -0.70077,-0.540467 -1.03488,-0.830585 -0.45474,-0.392052 -0.76935,-0.952982 -0.81396,-1.557739 -0.0339,-0.428275 -0.0121,-0.859134 0.0647,-1.28182 l 49.0101,-0.006 v 4.514014 h -44.37327 z" /><path
       id="path30"
       style="fill:url(#linearGradient28);fill-opacity:1;fill-rule:evenodd;stroke:none"
       d="m 140.29992,28.673303 c -1.25488,-0.325535 -2.51948,-0.612408 -3.792,-0.86021 -6.03449,-1.19608 -12.13049,-2.20164 -18.21032,-3.114358 -2.3733,-0.359284 -4.75197,-0.681979 -7.1352,-0.967973 -1.11557,-0.140771 -2.23562,-0.243085 -3.35819,-0.306764 -7.65487,-0.314488 -15.322594,-0.06799 -22.941564,0.737524 -3.997019,0.427173 -7.973029,1.032224 -11.916193,1.813354 -8.219255,1.625691 -16.254643,4.087439 -23.878575,7.574251 -7.883959,3.605735 -15.197741,8.377501 -21.43838,14.415283 -5.07519,4.910216 -8.798191,10.076177 -12.356933,16.359276 -1.118712,1.972177 -2.152591,3.991274 -3.098808,6.051767 -0.931361,2.018398 -1.73807,4.091997 -2.41559,6.209135 C 9.013723,78.921912 8.457155,81.424355 8.32031,83.90206 8.192627,86.213883 8.228377,89.553067 8.321348,92.014988 7.443602,90.588158 6.605165,89.137517 5.806983,87.664702 3.686476,83.686465 2.1874,78.014828 1.330872,73.244121 0.448837,68.331342 -0.153416,62.602814 0.034395,57.572012 0.069487,56.568121 0.160391,55.566925 0.306684,54.573097 1.442691,47.114208 4.247312,40.007881 8.511556,33.783636 c 2.267564,-3.2989 4.88197,-6.345405 7.798481,-9.087388 3.21758,-3.020159 6.717095,-5.725116 10.45059,-8.077805 3.611097,-2.28025 7.383643,-4.294193 11.287631,-6.02581 C 42.344322,8.685369 46.758532,7.056195 51.263589,5.715187 60.782036,2.878005 70.646826,1.145 80.556417,0.411597 c 7.364509,-0.548796 14.759654,-0.548796 22.124173,0 1.5503,0.138012 3.09598,0.322737 4.63504,0.553932 7.12075,1.042939 13.79154,2.199565 20.91683,3.537049 3.24246,0.608641 8.63344,1.67035 11.32135,2.4087 9.23941,2.591496 18.2494,5.940428 26.9384,10.012757 4.57324,2.149651 9.03886,4.521162 13.38094,7.106076 18.63875,11.090827 34.76115,26.309031 44.73413,45.686899 2.77114,5.387709 5.01287,11.031628 6.69369,16.852402 1.14888,4.01065 2.00102,10.724048 2.00011,15.215698 -8.3e-4,4.10873 -0.33058,10.71532 -0.62634,15.16642 -1.84523,-5.61963 -4.5941,-13.54145 -6.63691,-18.538424 -7.03925,-17.218925 -20.49758,-32.694571 -34.78929,-44.240151 -5.78297,-4.686137 -11.9565,-8.868546 -18.453,-12.501422 -1.69645,-0.927796 -6.04393,-2.792033 -8.23494,-3.707978 -4.96205,-2.074368 -9.2331,-3.78411 -14.23776,-5.715698 -2.89617,-1.117801 -7.43796,-2.821252 -10.02292,-3.574554 z" /><path
       id="path38"
       style="fill:url(#linearGradient36);fill-opacity:1;fill-rule:evenodd;stroke:none"
       d="m 124.76257,41.396353 c -0.0517,0.09819 -0.11401,0.19041 -0.18583,0.275004 -0.14596,0.172206 -0.30356,0.334204 -0.47169,0.48485 -0.32665,0.294153 -0.66313,0.57723 -1.00886,0.848735 l -2.74154,2.139001 c -0.94631,0.74331 -1.87504,1.508731 -2.78542,2.295631 -1.78806,1.536539 -3.46231,3.200727 -5.00959,4.979481 -2.81995,3.264953 -5.45789,7.351585 -7.4497,11.334704 -4.45024,8.899323 -7.109861,18.827107 -8.297857,28.740742 -0.682827,5.617782 -0.849957,11.286269 -0.4993,16.934509 1.29187,19.82796 8.272927,41.45338 17.997617,59.47195 3.77253,6.96432 7.68494,13.85199 11.73483,20.65878 2.28727,3.83899 4.53615,7.70072 6.7463,11.58462 7.15863,12.61555 11.09222,22.90343 14.51669,36.50239 1.35681,5.38802 2.44372,10.60405 2.99992,16.06964 0.63641,6.25374 0.59164,12.8464 0.0262,19.18078 -0.2977,3.35834 -0.76005,6.70005 -1.38538,10.01306 -0.69026,3.72844 -1.65653,7.40048 -2.89081,10.98579 -1.33377,3.85341 -2.9297,8.11275 -4.53328,11.91657 -0.53469,1.27007 -1.10193,2.52619 -1.70115,3.76712 -0.36868,0.76427 -0.76372,1.51554 -1.18443,2.25245 -0.44482,0.77939 -0.78426,1.29178 -1.33333,1.93967 -0.21589,0.26696 -0.48972,0.48125 -0.80075,0.62662 -0.20607,0.0919 -0.86805,0.28314 -1.1252,0.14098 -0.27567,-0.15239 0.18905,-5.94431 0.34264,-7.71247 0.35301,-4.06376 0.75145,-8.70624 0.57233,-12.94303 -0.36708,-8.6831 -3.85504,-18.47296 -7.65146,-26.4111 -2.15374,-4.49926 -4.5696,-8.86829 -7.23514,-13.08456 -1.44411,-2.29122 -2.96256,-4.53472 -4.55293,-6.72694 -1.81367,-2.51445 -3.75157,-4.93689 -5.8065,-7.2583 -1.4029,-1.52185 -2.85099,-3.0016 -4.34224,-4.43717 -4.21105,-4.08333 -8.415262,-8.05185 -12.69683,-12.03535 -4.961372,-4.61557 -9.933771,-9.21928 -14.917154,-13.81108 l -12.96416,-11.97554 c -2.801471,-2.5934 -5.595123,-5.19522 -8.380925,-7.80544 -2.78833,-2.60122 -5.548214,-5.23278 -8.279159,-7.89418 l -1.777387,-1.76686 c -0.736874,-0.73276 -1.449456,-1.48954 -2.136589,-2.26913 -5.814613,-6.77123 -10.836654,-14.18455 -14.968447,-22.09578 -2.155059,-4.13869 -4.029153,-8.41772 -5.609582,-12.80807 -4.964783,-13.77914 -6.714752,-28.52283 -4.004638,-42.98639 0.901665,-4.798629 2.279232,-9.495462 4.112286,-14.020906 2.006863,-4.937024 4.510022,-9.657421 7.470938,-14.088514 3.336269,-5.002561 7.349203,-9.519041 11.924464,-13.420753 5.069332,-4.328027 10.79609,-7.956612 16.834013,-10.810576 6.160928,-2.912104 12.841722,-5.157853 19.541138,-6.659515 7.535033,-1.686376 15.228953,-2.561191 22.950232,-2.609491 2.92144,0.0018 6.83291,0.318055 9.78723,0.581908 2.63875,0.228616 5.2713,0.523814 7.89514,0.885313 0.67233,0.09708 2.40359,0.350434 3.08647,0.577652 0.0748,0.0249 0.19423,0.07068 0.24018,0.142586 0.0209,0.103103 0.003,0.210287 -0.0514,0.300609 z" /><path
       id="path46"
       style="fill:url(#linearGradient44);fill-opacity:1;fill-rule:evenodd;stroke:none"
       d="m 279.54519,148.911 c -0.56484,0.64319 -1.05576,1.34769 -1.46356,2.10031 -0.45355,0.83346 -0.74178,1.74669 -0.84883,2.6895 -0.0925,0.92561 6.9e-4,1.86047 0.27401,2.74973 0.29787,0.95741 0.73205,1.86697 1.28917,2.70066 0.96113,1.45535 2.32098,2.60314 3.91703,3.30621 0.84339,0.37654 1.72342,0.66498 2.62607,0.86072 0.98841,0.20991 1.99315,0.33375 3.00294,0.37012 2.03319,0.0632 4.06669,-0.1163 6.05742,-0.5346 3.17948,-0.65961 5.64061,-1.59143 8.67859,-3.04853 2.61217,-1.25907 5.19229,-2.58364 7.73788,-3.97246 0.15564,1.27215 0.39896,2.53202 0.72824,3.77063 0.9562,3.47013 3.85032,8.55046 6.09723,11.97397 -2.59969,1.21594 -5.21703,2.39379 -7.85118,3.53316 -1.9481,0.81869 -3.95142,1.49904 -5.99512,2.03601 -8.76867,2.31058 -18.72018,2.64559 -27.63177,0.95356 -2.41809,-0.45697 -4.79706,-1.10102 -7.11544,-1.92635 -2.31773,-0.81928 -4.54158,-1.88316 -6.63391,-3.17362 -2.3462,-1.45389 -4.42682,-3.23558 -6.12769,-5.3911 -3.61271,-4.5784 -5.85025,-10.05146 -6.36028,-15.82241 -0.56267,-6.40789 1.06237,-12.81737 4.61007,-18.18312 0.7709,-1.1611 1.67079,-2.23116 2.68249,-3.18974 1.1015,-1.04409 2.29616,-1.98528 3.56906,-2.81181 1.31763,-0.85547 2.65711,-1.67678 4.01712,-2.46312 1.4501,-0.84239 2.91022,-1.66746 4.38002,-2.47501 3.01113,-1.64795 6.03383,-3.27463 9.0679,-4.87992 l 4.81885,-2.58373 c 1.03525,-0.5603 2.06529,-1.13018 3.08999,-1.70955 1.02612,-0.57074 2.03253,-1.17623 3.01748,-1.81541 l 0.63378,-0.44076 c 0.26315,-0.1822 0.50493,-0.39343 0.72079,-0.62973 1.34544,-1.63801 1.95078,-3.76091 1.67161,-5.86218 -0.14636,-1.04551 -0.51561,-2.04743 -1.08276,-2.93791 -0.6159,-0.95486 -1.4094,-1.78263 -2.33741,-2.438351 -0.85587,-0.59713 -1.79027,-1.073012 -2.77659,-1.414087 -1.05921,-0.370349 -2.14595,-0.656668 -3.25013,-0.856301 -2.26476,-0.393242 -4.5627,-0.563025 -6.86068,-0.506899 -4.48431,0.102383 -9.88456,0.879663 -14.10322,2.777991 -1.40251,0.641607 -2.7851,1.326107 -4.14574,2.052507 -0.68953,0.37831 -1.39799,0.72121 -2.12256,1.02733 -0.33806,0.14935 -0.70215,0.23128 -1.07172,0.24115 -0.39121,0.001 -0.74841,-0.22214 -0.91854,-0.57441 -0.36465,-0.65516 -0.68346,-1.33481 -0.95412,-2.03406 -0.33812,-0.831734 -0.66129,-1.669601 -0.96929,-2.513082 -1.18031,-3.274502 -2.29753,-6.571385 -3.35105,-9.888835 2.5769,-1.224625 5.16968,-2.415546 7.77768,-3.57246 1.44385,-0.643368 2.91239,-1.229868 4.40222,-1.758145 1.62765,-0.567946 3.30442,-0.983766 5.00881,-1.242136 1.00391,-0.146962 2.01422,-0.246268 3.02753,-0.297586 4.9313,-0.285772 9.12745,-0.373569 14.16253,-0.36294 1.76098,8.56e-4 3.52177,0.03799 5.28123,0.111376 0.79815,0.02898 1.59488,0.08959 2.38827,0.181687 3.69282,0.470038 7.31619,1.379989 10.79292,2.710471 1.83699,0.706681 3.61265,1.563448 5.30899,2.561615 5.36097,3.143945 9.62809,7.732004 11.70028,13.65636 1.42289,4.068045 1.70579,8.386795 1.18187,12.624375 -0.47287,3.82472 -1.50108,7.33075 -3.27732,10.67446 -1.95076,3.67733 -4.77515,6.81906 -8.22481,9.1489 -1.22893,0.82231 -2.48022,1.61064 -3.75249,2.36409 -1.35716,0.80764 -2.72462,1.59786 -4.10205,2.37044 -2.82158,1.57609 -5.65516,3.13057 -8.5005,4.66331 -2.86134,1.54424 -5.06703,2.75024 -7.79723,4.32003 -0.97651,0.55651 -1.93175,1.14956 -2.86368,1.77787 -0.44312,0.29125 -0.85538,0.62692 -1.2304,1.00181 z" /><path
       id="path54"
       style="fill:url(#linearGradient52);fill-opacity:1;fill-rule:evenodd;stroke:none"
       d="m 324.27892,117.22834 c 0.32551,-5.28194 1.59424,-10.46292 3.7461,-15.29763 1.14064,-2.570158 2.5484,-5.013245 4.20006,-7.288948 1.83984,-2.557329 4.04905,-4.827465 6.55542,-6.736195 1.91952,-1.449615 3.96408,-2.725703 6.10956,-3.813215 2.39219,-1.21486 4.93024,-2.118067 7.55211,-2.687537 2.08774,-0.444324 4.20795,-0.719342 6.33996,-0.822373 5.90228,-0.303259 12.29954,0.365721 17.95258,2.300345 1.39771,0.475121 2.75259,1.068073 4.04999,1.772458 3.91982,2.171359 7.35376,5.121888 10.09053,8.670027 1.4482,1.871835 2.72081,3.873162 3.80169,5.978583 1.18825,2.317285 2.18366,4.728475 2.97613,7.209145 3.28417,10.26534 3.66387,21.55397 2.63372,32.24466 -0.80583,8.36262 -2.77408,17.17884 -7.07346,24.54659 -2.19868,3.76783 -5.03656,7.0649 -8.53144,9.63864 -1.81648,1.33458 -3.78016,2.4562 -5.85249,3.34283 -2.2611,0.96206 -4.62039,1.67457 -7.03602,2.12491 -0.80783,0.12909 -1.62201,0.21329 -2.43897,0.25226 -3.83769,0.20915 -7.44001,0.23143 -11.31487,0.16488 -1.48917,-0.0226 -2.97759,-0.0815 -4.46394,-0.1764 -0.71521,-0.0365 -1.4276,-0.1169 -2.13305,-0.24072 -3.44558,-0.72091 -6.7413,-2.02891 -9.74329,-3.86688 -3.33324,-2.06618 -6.26316,-4.72098 -8.64693,-7.83497 -2.43767,-3.18944 -4.38832,-6.72311 -5.78817,-10.48544 -1.54065,-4.12285 -2.54397,-8.42695 -2.9852,-12.80609 -0.18716,-2.08026 -0.29569,-4.16677 -0.32536,-6.25514 -0.12027,-6.81306 -0.0308,-13.20954 0.32534,-19.93379 z m 42.57509,-19.188969 c -0.55371,-0.228339 -1.13234,-0.390814 -1.72399,-0.484081 -0.59439,-0.100768 -1.19179,-0.182903 -1.79133,-0.246283 -1.0553,-0.107202 -1.9038,-0.128245 -2.92795,-0.08789 -0.43828,0.01164 -0.87342,0.07755 -1.29549,0.196245 -1.4406,0.487071 -2.73535,1.329077 -3.76481,2.448349 -1.08722,1.176839 -2.02089,2.740889 -2.6468,4.271459 -0.66343,1.6383 -1.17455,3.33427 -1.52688,5.06638 -0.39006,1.88278 -0.68567,3.78388 -0.88572,5.69619 -0.41051,3.86532 -0.6832,7.74404 -0.81756,11.62877 -0.14845,3.90449 -0.14227,7.8133 0.0185,11.71727 0.0762,1.76897 0.19875,3.53565 0.36747,5.29822 0.18539,1.97039 0.45505,3.93193 0.80826,5.87923 0.35695,2.02165 0.87263,4.012 1.54225,5.9526 0.36477,1.0441 0.81065,2.0581 1.33356,3.03269 0.58742,1.10825 1.34489,2.11759 2.24484,2.9913 0.96117,0.90669 2.11033,1.59055 3.36575,2.00292 1.41185,0.44953 2.91739,0.51856 4.36451,0.20009 1.48819,-0.33232 2.88176,-0.99753 4.07602,-1.94567 1.2993,-1.02802 2.38072,-2.30462 3.1811,-3.75526 0.46683,-0.89095 0.88194,-1.80806 1.24327,-2.74676 0.87193,-2.24478 2.15333,-5.81686 2.25558,-8.23923 0.14195,-3.81886 0.29033,-7.63756 0.44514,-11.45599 0.1745,-4.19849 0.23737,-8.40087 0.18855,-12.60269 -0.0308,-2.02273 -0.11886,-4.04421 -0.26407,-6.06199 -0.15635,-2.277 -0.44247,-4.5432 -0.85696,-6.78758 -0.19836,-1.04963 -0.44384,-2.08984 -0.73569,-3.11744 -0.32552,-1.15986 -0.74124,-2.29246 -1.24337,-3.38747 -0.49248,-1.08507 -1.12224,-2.1024 -1.87384,-3.02704 -0.83409,-1.029829 -1.88612,-1.861907 -3.08038,-2.436339 z" /><path
       id="path62"
       style="fill:url(#linearGradient60);fill-opacity:1;fill-rule:evenodd;stroke:none"
       d="m 475.29271,106.19974 0.48769,71.2111 h -20.0128 l 0.48688,-66.71175 c 0.0163,-0.57315 -10e-4,-1.14676 -0.053,-1.7178 -0.0832,-0.6172 -0.21023,-1.22771 -0.38003,-1.8269 -0.26906,-1.09094 -0.59118,-2.16786 -0.96527,-3.22713 -0.42655,-1.19914 -0.98729,-2.374 -1.79374,-3.36812 -1.21534,-1.498168 -2.86803,-2.284774 -4.67375,-2.742605 -0.6641,-0.167256 -1.33631,-0.300406 -2.01401,-0.398928 -2.69828,-0.386867 -5.69574,0.387569 -7.98927,1.803629 -0.92278,0.56662 -1.72279,1.312254 -2.35285,2.192944 -0.86843,1.2728 -1.56112,2.95968 -2.12489,4.46545 -0.20475,0.53376 -0.3747,1.08022 -0.50878,1.63595 -0.0547,0.29203 -0.0877,0.58772 -0.0986,0.88463 l -0.0163,0.96931 v 68.04132 h -24.01235 v -68.71121 c -0.009,-0.57449 0.008,-1.14911 0.0503,-1.72208 0.0672,-0.62069 0.16798,-1.23704 0.30203,-1.84655 0.27169,-1.40553 0.58557,-2.80258 0.94122,-4.18925 0.39199,-1.567734 0.93016,-3.095286 1.60743,-4.562553 0.6824,-1.431093 1.53479,-2.774623 2.53876,-4.001593 1.09407,-1.326568 2.28458,-2.570517 3.56184,-3.721721 2.01028,-1.823592 4.28888,-3.327432 6.75601,-4.45885 2.68915,-1.234938 5.52002,-2.134368 8.42881,-2.678021 2.89109,-0.547198 5.82632,-0.827787 8.76873,-0.83823 3.20073,-0.01445 6.39747,0.227647 9.55952,0.723956 5.33443,0.825402 10.43229,2.459105 14.50076,6.092648 1.00334,0.89824 1.9212,1.8876 2.74178,2.955377 1.78656,2.328461 3.15514,4.974699 4.21597,7.703921 0.57595,1.480727 1.08595,2.986266 1.52851,4.512186 0.17385,0.5466 0.3126,1.10375 0.4154,1.66805 0.0825,0.61757 0.11722,1.24024 0.10398,1.86282 z" /><path
       id="path70"
       style="fill:url(#linearGradient68);fill-opacity:1;fill-rule:evenodd;stroke:none"
       d="m 547.27423,163.39764 v 14.0132 h -64.00892 v -14.0132 h 18.49837 l -0.49996,-79.99316 h 26.01222 v 79.99316 z" /><path
       id="path78"
       style="fill:url(#linearGradient76);fill-opacity:1;fill-rule:evenodd;stroke:none"
       d="m 555.25915,83.40448 h 25.01226 v 40.99649 h 20.98381 V 83.40448 h 24.01234 v 94.00636 h -24.01234 v -36.49688 h -20.98381 v 36.49688 h -25.01226 z" /><path
       id="path86"
       style="fill:url(#linearGradient84);fill-opacity:1;fill-rule:evenodd;stroke:none"
       d="m 659.76477,163.39764 h 29.49732 v 14.0132 H 635.25231 V 83.40448 H 690.262 v 15.013116 h -30.49739 v 26.983294 h 25.49807 l -0.008,15.01627 -24.98988,-0.003 -0.49964,22.98364 z" /><path
       id="path94"
       style="fill:url(#linearGradient92);fill-opacity:1;fill-rule:evenodd;stroke:none"
       d="m 750.06957,119.7194 c 1.81112,0.89692 3.59211,1.85342 5.34007,2.86793 0.71213,0.4151 1.41034,0.85365 2.09346,1.31493 5.07637,3.45494 8.01417,9.3226 9.30375,15.17919 0.73918,3.36827 1.02881,6.81962 0.86133,10.26397 -0.17588,3.73472 -0.95564,8.11858 -2.66329,11.56278 -1.18048,2.33622 -2.64324,4.51861 -4.3555,6.49827 -1.77154,2.06225 -4.33549,4.52214 -6.89682,5.75398 -0.98183,0.45797 -1.99398,0.84746 -3.02937,1.16577 -1.09834,0.34584 -2.20588,0.66193 -3.32135,0.94792 -2.29591,0.57313 -4.5938,1.13831 -6.89362,1.69554 -0.55337,0.15177 -1.11493,0.27194 -1.68195,0.35993 -0.61947,0.0696 -1.24268,0.0968 -1.86556,0.0812 l -38.21414,1e-5 -5.8e-4,-38.8941 v -2.75214 l 10e-4,-2.47926 -10e-4,-8.5293 v -16.87633 l 10e-4,-24.480003 24.01228,0.0048 -0.49997,31.997973 c 1.27808,0.1291 2.56288,0.1797 3.84716,0.1515 0.44152,-0.0114 0.88115,-0.0623 1.31363,-0.15206 0.40917,-0.0902 0.76896,-0.33229 1.00662,-0.67746 0.25995,-0.40504 0.45174,-0.84996 0.56772,-1.31705 0.36154,-1.13807 0.79727,-2.25073 1.30452,-3.33124 0.51005,-1.11695 1.04348,-2.22316 1.59989,-3.31784 1.08475,-2.1288 2.19681,-4.24356 3.33592,-6.34377 l 3.4591,-6.416247 c 1.30094,-2.40937 2.55581,-4.843329 3.76393,-7.300552 l 0.50016,-1.059594 c 0.0783,-0.170918 0.14655,-0.346298 0.20428,-0.525231 0.0589,-0.189949 0.0862,-0.388363 0.0808,-0.587239 l -10e-6,-1.12119 h 25.89374 l -19.06724,36.314923 z m -27.31045,10.69517 -0.51072,33.70771 c 2.94208,-0.30301 5.87184,-0.7156 8.78317,-1.23693 1.08315,-0.19678 2.15678,-0.44282 3.21755,-0.73734 1.02901,-0.29985 2.0034,-0.76271 2.88602,-1.37094 1.94082,-1.34123 3.4561,-3.32692 4.44393,-5.47672 1.61704,-3.51915 2.0649,-7.47431 1.46607,-11.27687 -0.42341,-2.73674 -1.46682,-5.34046 -3.0505,-7.61222 -2.668,-3.7716 -7.803,-5.79261 -12.44335,-5.99641 -1.59667,-0.0671 -3.19547,-0.0672 -4.79217,-2.8e-4 z" /><path
       id="path102"
       style="fill:url(#linearGradient100);fill-opacity:1;fill-rule:evenodd;stroke:none"
       d="m 827.23589,120.95997 -27.31595,56.45087 H 776.24025 V 83.40448 h 18.01286 v 54.70663 l 25.19661,-54.70663 h 24.79912 v 94.00636 h -17.01295 z" /><path
       id="path104"
       style="fill:#fc3c00;fill-opacity:1;fill-rule:evenodd;stroke:none"
       d="m 382.34613,33.78458 c -0.0288,-0.409192 0.10358,-0.813417 0.36878,-1.126361 0.43809,-0.548705 0.98181,-1.003937 1.59898,-1.338747 0.66661,-0.372047 1.36927,-0.675628 2.09716,-0.906048 1.60651,-0.513113 3.33582,-0.828551 5.02857,-1.004289 3.38049,-0.350956 6.85552,-0.325581 10.22323,0.215834 2.31815,0.372681 4.60554,1.033885 6.67919,2.15103 2.02463,1.090729 3.73774,2.704659 4.6629,4.838204 0.6308,1.454699 0.9565,3.290744 0.67492,4.825421 -0.5365,2.924033 -2.17916,6.494984 -5.24143,7.566784 -0.4559,0.158366 -0.91526,0.306544 -1.37775,0.44443 L 394.25255,53.3918 c -0.40867,0.12 -0.813,0.254328 -1.21224,0.402735 -0.39524,0.130106 -0.74153,0.37743 -0.99282,0.709093 -0.51546,0.661679 -1.11254,1.518813 -0.80729,2.418798 0.59345,1.749703 4.20362,2.293348 5.54061,2.484164 0.9965,0.157916 2.01143,0.157916 3.00771,3.4e-5 0.7535,-0.117691 1.50257,-0.262156 2.24578,-0.433126 0.72019,-0.163944 1.43781,-0.338942 2.15262,-0.524933 2.38159,-0.62725 4.74852,-1.308886 7.09894,-2.044373 v 7.684002 c -2.0103,0.809724 -4.72708,1.803501 -6.66473,2.331885 -3.3017,0.900349 -6.84375,0.942094 -10.21332,0.340782 -1.78263,-0.313006 -3.5169,-0.857024 -5.15895,-1.618301 -0.86751,-0.406211 -1.69307,-0.89651 -2.46485,-1.463868 -1.68556,-1.233445 -2.81312,-2.854481 -3.72755,-4.702901 -0.48032,-0.963966 -0.79775,-2.000843 -0.93939,-3.068535 -0.29529,-2.281941 0.48949,-4.375834 1.65784,-6.246503 1.12317,-1.798358 2.41692,-2.991604 4.45683,-3.585783 0.51957,-0.158939 1.04418,-0.301279 1.57294,-0.42677 1.03865,-0.244345 2.081,-0.472617 3.12669,-0.684738 1.78559,-0.351652 3.55953,-0.759888 5.31917,-1.224099 1.34824,-0.357306 3.09282,-0.938539 4.31835,-1.772427 0.84792,-0.576949 1.38618,-1.313826 1.40683,-2.379794 0.0375,-1.934143 -2.48712,-2.756811 -3.97179,-3.061986 -1.36665,-0.280918 -2.62621,-0.373214 -3.98171,-0.363292 -0.86659,0.0024 -1.73085,0.08981 -2.5804,0.260848 -0.79225,0.201507 -1.57811,0.427348 -2.35647,0.677204 -2.8023,0.92121 -5.56814,1.949974 -8.29134,3.08399 0,0 -0.3855,-5.142483 -0.3855,-5.142483 -0.0375,-0.417952 -0.0583,-0.837232 -0.0624,-1.256843 z" /><path
       id="path106"
       style="fill:#fc3c00;fill-opacity:1;fill-rule:evenodd;stroke:none"
       d="m 516.02474,34.410725 c 2.13034,2.07082 3.7543,4.60516 4.74558,7.405902 1.09698,3.174931 1.31434,6.587489 0.62906,9.87589 -0.69113,3.368136 -2.25594,6.495289 -4.53742,9.067649 -2.48056,2.813602 -5.77101,4.790692 -9.41985,5.65997 -4.40176,1.004829 -10.79777,0.274312 -15.1522,-1.175532 -0.86923,-0.286536 -1.7127,-0.64613 -2.52133,-1.074918 -0.54266,-0.316713 -1.05726,-0.678671 -1.53854,-1.082137 -1.44475,-1.193443 -2.66668,-2.414784 -3.8468,-3.829257 -1.27794,-1.531724 -2.70831,-3.62341 -3.11763,-5.672666 -0.37135,-1.878866 -0.58293,-3.785806 -0.63246,-5.700379 -0.0512,-2.191674 0.21016,-4.363601 0.9156,-6.432123 0.69156,-2.017164 1.80488,-3.86388 3.26582,-5.417217 0.76051,-0.822497 1.58426,-1.584235 2.46367,-2.278209 0.95628,-0.755043 1.9545,-1.455399 2.98987,-2.097711 1.74618,-1.084106 3.81469,-1.858835 5.85821,-2.281273 2.26151,-0.464847 4.57768,-0.60522 6.87876,-0.416894 3.461,0.273754 6.88927,1.243953 9.87886,3.029028 1.13921,0.679189 2.19356,1.491527 3.1408,2.419877 z M 512.263,51.582806 c 0.29977,-1.437234 0.41466,-2.906882 0.34187,-4.373239 -0.0766,-1.65528 -0.48275,-3.278609 -1.19465,-4.774917 -0.70997,-1.464375 -1.74676,-2.746205 -3.03042,-3.74663 -1.4135,-1.081675 -3.03903,-1.853546 -4.7707,-2.265318 -1.78054,-0.470058 -3.64677,-0.51279 -5.44679,-0.12476 -2.02677,0.457836 -3.86936,1.513944 -5.28885,3.03142 -3.14852,3.376759 -3.88042,8.163365 -2.59467,12.422914 1.65246,5.474408 7.10254,8.772431 12.59183,7.789734 1.96131,-0.35769 3.81015,-1.174541 5.3953,-2.383746 0.48802,-0.395322 0.94174,-0.831194 1.35632,-1.30296 1.0503,-1.184836 2.24945,-2.698028 2.64076,-4.272498 z" /><path
       id="path108"
       style="fill:#fc3c00;fill-opacity:1;fill-rule:evenodd;stroke:none"
       d="m 317.28031,43.4079 c 0.13963,-1.165272 0.19497,-2.339102 0.16561,-3.512342 -0.0113,-0.387735 -0.067,-0.772926 -0.16612,-1.147977 -0.28438,-0.941999 -2.4598,-1.964648 -3.65493,-2.32501 -2.28608,-0.689311 -4.92761,-0.452426 -7.22222,0.281886 -2.51549,0.804995 -5.33013,2.424067 -6.85847,4.714853 -1.25966,1.888059 -1.81625,4.217898 -1.76134,6.48052 0.0595,2.452705 0.90095,5.258147 2.76028,7.009095 1.51004,1.393894 3.24755,2.519241 5.13722,3.32724 1.96775,0.846083 4.38278,1.47568 6.6058,1.170433 2.69555,-0.370129 7.90926,-2.256618 11.00725,-3.503224 v 7.684758 c -2.33284,0.994425 -5.38546,2.169925 -7.66454,2.831915 -5.05104,1.467141 -10.91765,0.57849 -15.71434,-1.679785 -1.16697,-0.548617 -2.28693,-1.192127 -3.3486,-1.924042 -3.6652,-2.522744 -6.46682,-6.10417 -7.2839,-10.560609 -0.41963,-2.234061 -0.54531,-4.513468 -0.37382,-6.780182 0.0957,-1.208808 0.31387,-2.404779 0.65113,-3.569525 0.37416,-1.306313 0.91515,-2.558943 1.60958,-3.726933 0.63333,-1.058789 1.38964,-2.038952 2.25318,-2.920085 1.87788,-1.912141 4.2863,-3.413796 6.78541,-4.446579 1.37713,-0.569359 2.79368,-1.038249 4.23855,-1.402991 1.3775,-0.316121 4.65153,-0.228961 6.09876,-0.168345 1.16574,0.04883 5.25725,0.255756 6.79109,0.763425 2.12225,0.702422 5.73053,2.337125 7.95733,3.434856 V 50.4217 h -17.01295 v -7.0138 z" /><path
       id="path110"
       style="fill:#fc3c00;fill-opacity:1;fill-rule:evenodd;stroke:none"
       d="m 471.25178,62.043753 c -0.002,0.41221 -0.14809,0.810754 -0.41199,1.127422 -0.35603,0.450013 -0.78619,0.83603 -1.27197,1.141457 -0.52507,0.337217 -1.07955,0.626433 -1.65663,0.864098 -1.38455,0.56336 -2.82431,0.980129 -4.2957,1.243484 -2.05046,0.382484 -4.1356,0.547302 -6.22071,0.491705 -2.27467,-0.04404 -4.53368,-0.387497 -6.71871,-1.0215 -2.07764,-0.609641 -3.91435,-1.502389 -5.58034,-2.818166 -2.58208,-2.0393 -4.48531,-5.397554 -4.21909,-8.72809 0.20039,-2.507081 1.51999,-4.809206 3.36573,-6.473377 1.03769,-0.939179 2.2328,-1.688157 3.53047,-2.212554 0.19754,-0.07313 0.40226,-0.125189 0.61073,-0.155315 l 1.65644,-0.295095 c 3.37096,-0.570115 5.86659,-0.996401 8.98418,-1.900725 1.14188,-0.323483 2.24884,-0.759487 3.30461,-1.301603 0.73269,-0.382137 1.63915,-1.013596 1.94293,-1.879205 0.1332,-0.429421 0.0933,-0.893889 -0.11106,-1.294342 -0.22239,-0.43902 -0.52463,-0.832732 -0.89126,-1.160992 -0.55391,-0.499913 -1.3102,-0.867102 -2.04356,-1.083408 -0.80531,-0.234987 -1.63231,-0.388184 -2.4684,-0.457253 -1.83501,-0.158786 -3.68321,-0.06035 -5.49097,0.292465 -2.38766,0.49323 -4.98587,1.34862 -7.26254,2.257565 -0.52735,0.211504 -1.0595,0.410869 -1.59601,0.597937 -1.55615,0.536341 -2.27296,0.365436 -2.6851,-1.423783 -0.22305,-0.968309 -0.33868,-1.952859 -0.45389,-2.93787 -0.0366,-0.293314 -0.0605,-0.588183 -0.0716,-0.883671 -0.0357,-0.704681 0.14906,-1.309069 0.70825,-1.764172 1.72281,-1.402138 4.55415,-2.246591 6.74725,-2.622277 2.2115,-0.374856 4.45427,-0.533183 6.69649,-0.472736 4.09955,0.09709 9.0914,0.823917 12.85667,2.658707 2.19691,1.070539 3.88179,2.813853 4.79662,5.047118 0.66498,1.623112 0.85367,3.402107 0.54398,5.128598 -0.30795,1.754048 -1.06179,3.399431 -2.1891,4.77808 -1.2223,1.491082 -2.7966,2.654377 -4.58087,3.38493 -0.42883,0.170674 -1.30271,0.328038 -1.75741,0.410961 -1.58915,0.271422 -3.17737,0.548272 -4.76463,0.830543 -1.12179,0.207959 -2.23735,0.448529 -3.3452,0.721393 -1.62757,0.395841 -3.67361,1.015727 -5.16507,1.962504 -0.65943,0.418599 -1.18609,0.909335 -1.46227,1.620017 -0.19932,0.511001 -0.1226,1.088521 0.20322,1.529762 0.18516,0.24472 0.41028,0.456478 0.66588,0.626352 0.2753,0.184588 0.56654,0.344219 0.87025,0.476992 1.42389,0.606378 3.07954,0.895591 4.62852,1.041001 0.62637,0.0588 1.85927,0.144319 2.63345,0.01591 1.20357,-0.199623 3.58509,-0.902158 4.77296,-1.280793 2.43147,-0.779001 4.84056,-1.626242 7.22439,-2.540718 0,0 0,5.198405 0,5.198405 0.006,0.42029 -0.004,0.840644 -0.029,1.260234 z" /><path
       id="path112"
       style="fill:#fc3c00;fill-opacity:1;fill-rule:evenodd;stroke:none"
       d="m 668.49987,53.916571 c -0.31757,-0.911104 -0.58538,-1.838795 -0.80225,-2.778968 -0.23046,-0.976849 -0.38031,-1.97101 -0.44803,-2.972424 -0.24114,-3.749319 1.24138,-7.58861 3.32174,-10.626873 0.87688,-1.292572 1.92086,-2.463575 3.10477,-3.482518 3.5607,-2.983143 7.97205,-4.766262 12.60547,-5.09531 5.06987,-0.362116 10.18911,0.998491 14.47617,3.699446 4.71036,2.967651 7.37994,8.173042 7.83567,13.578729 0.51362,6.092331 -1.68978,12.06896 -6.33502,15.930369 -1.54639,1.279252 -3.29118,2.29756 -5.16559,3.01477 -2.06562,0.80505 -4.23218,1.32209 -6.43873,1.536571 -5.67888,0.56294 -11.90722,-0.632708 -16.46377,-4.249193 -0.88419,-0.703699 -1.6887,-1.502027 -2.39918,-2.380743 -1.42931,-1.773504 -2.53888,-3.982359 -3.29125,-6.173856 z m 8.76301,-1.834021 c 0.28916,1.114205 0.79227,2.161532 1.4813,3.083645 1.64138,2.182636 4.07428,3.508707 6.67701,4.106546 1.53208,0.362882 3.12212,0.408442 4.67237,0.133902 1.76877,-0.340336 3.43144,-1.096162 4.85089,-2.205171 5.08682,-3.995262 6.10701,-11.670433 2.05411,-16.781674 -2.45407,-3.094916 -6.95971,-4.446933 -10.7624,-4.01668 -1.54579,0.174897 -2.96271,0.657079 -4.2266,1.518401 -2.15732,1.470189 -3.91154,3.434139 -4.75688,5.894641 -0.43182,1.277859 -0.63824,2.621126 -0.61003,3.969752 0.0311,1.452092 0.23934,2.89496 0.62023,4.296638 z" /><path
       id="path114"
       style="fill:#fc3c00;fill-opacity:1;fill-rule:evenodd;stroke:none"
       d="m 792.00286,44.917449 c -0.48374,1.38767 -1.46458,2.54683 -2.75306,3.253557 -0.67589,0.381677 -1.38099,0.709349 -2.10862,0.979911 -0.77189,0.29305 -1.5538,0.559166 -2.34425,0.797846 -1.60295,0.477646 -3.21595,0.920808 -4.8379,1.329186 -1.32207,0.33563 -2.64022,0.686615 -3.95415,1.052879 -1.18057,0.330045 -2.29997,0.683384 -3.42471,1.14792 -0.78828,0.325576 -1.63042,0.757728 -2.14596,1.469162 -0.24765,0.340441 -0.35996,0.760751 -0.31516,1.179344 0.0677,0.42997 0.26338,0.829567 0.56153,1.146689 0.31531,0.341739 0.6756,0.639039 1.07099,0.883738 1.93073,1.227779 4.25636,1.674328 6.50437,1.248978 0.79853,-0.158223 1.59058,-0.347857 2.37424,-0.568452 0.75481,-0.208728 1.50617,-0.429665 2.2538,-0.662732 2.47665,-0.780471 4.93388,-1.621308 7.36947,-2.52176 v 8.434622 c -2.161,0.803402 -5.10588,1.802046 -7.16479,2.331768 -1.25479,0.31453 -2.5396,0.494104 -3.83254,0.535667 -2.79228,0.09619 -5.53914,-0.262905 -8.21723,-1.056006 -3.62227,-1.072718 -7.47031,-3.18813 -9.24755,-6.714357 -1.15482,-2.291268 -1.13611,-4.974469 -0.34165,-7.363318 0.34571,-1.039495 0.91121,-1.946552 1.5928,-2.783928 0.75805,-0.94172 1.672,-1.746557 2.70209,-2.379475 1.09578,-0.641677 3.02341,-1.277503 4.44523,-1.663303 1.57533,-0.42469 3.15911,-0.817302 4.75039,-1.177596 1.11043,-0.254708 2.21833,-0.52041 3.32351,-0.797061 1.19962,-0.300663 1.96159,-0.520995 3.05294,-0.922183 0.44247,-0.154975 0.8597,-0.374273 1.23826,-0.650833 0.64602,-0.520893 0.96528,-1.891325 0.86128,-2.698043 -0.0216,-0.177408 -0.0815,-0.348023 -0.17532,-0.500108 -0.43715,-0.652175 -1.33792,-1.201454 -2.12121,-1.496665 -2.47775,-0.933818 -5.72263,-0.888109 -8.38042,-0.330153 -0.85775,0.179147 -1.71055,0.381192 -2.55748,0.605921 -3.01087,0.818161 -5.99273,1.739736 -8.94023,2.763077 v -7.550709 c 2.63644,-0.969843 6.53013,-2.267509 8.99483,-2.831753 1.35686,-0.294431 2.73954,-0.45377 4.12781,-0.475683 3.55094,-0.07371 7.5567,0.344515 10.9652,1.557704 0.84811,0.297802 1.66018,0.689831 2.42093,1.168712 2.02346,1.282325 3.60354,3.222035 4.41072,5.472795 0.90301,2.517994 0.79429,5.307884 -0.15816,7.784642 z" /><path
       id="path116"
       style="fill:#fc3c00;fill-opacity:1;fill-rule:evenodd;stroke:none"
       d="m 348.60932,65.920375 -15.83498,-36.01132 h 8.88594 l 3.60313,9.499187 h 16.34354 l 4.00084,-9.499187 h 9.74838 l -16.89842,36.01132 z m 9.66612,-20.498247 h -11.03939 l 6.34573,12.99552 c 1.5839,-2.918123 3.72994,-7.457974 4.4222,-10.939116 0.12944,-0.679681 0.22008,-1.366299 0.27146,-2.056404 z" /><path
       id="path118"
       style="fill:#fc3c00;fill-opacity:1;fill-rule:evenodd;stroke:none"
       d="m 539.27492,65.920375 h -9.01363 v -36.01132 h 29.01192 v 7.513939 l -19.99829,-0.499957 z" /><path
       id="path120"
       style="fill:#fc3c00;fill-opacity:1;fill-rule:evenodd;stroke:none"
       d="m 592.20518,44.312495 c -0.0491,-0.539339 -0.15243,-1.072356 -0.30845,-1.590965 -0.43012,-1.537274 -1.06816,-2.866922 -2.17315,-3.968901 -0.58803,-0.582176 -1.26569,-1.066273 -2.00711,-1.433802 -0.83056,-0.406585 -1.70878,-0.707624 -2.61414,-0.896081 -0.98504,-0.193982 -1.99753,-0.204106 -2.98633,-0.02984 -3.22479,0.555901 -5.70879,2.502862 -6.54843,5.584288 -0.12077,0.431007 -0.20682,0.870995 -0.25733,1.315743 -0.0339,0.526605 -0.0467,1.054356 -0.0384,1.581986 V 65.92038 h -9.01396 l 1.16995,-26.206995 c 0.0121,-0.513246 0.0531,-1.025406 0.12261,-1.534064 0.20642,-1.284767 1.0338,-2.641726 1.88204,-3.672736 0.343,-0.425083 0.70315,-0.836215 1.07947,-1.232281 0.53657,-0.5859 1.1215,-1.125788 1.74852,-1.613875 0.92417,-0.627789 1.91997,-1.142088 2.96641,-1.53211 1.14129,-0.427881 2.32096,-0.745479 3.52282,-0.948455 2.51457,-0.420705 5.0794,-0.446313 7.60186,-0.0759 1.15449,0.165962 2.29513,0.417204 3.41253,0.751662 1.2437,0.369456 2.44798,0.860563 3.59538,1.466199 1.13611,0.596663 2.19049,1.337438 3.13702,2.20397 1.0492,0.957655 1.90547,2.107242 2.5226,3.386737 0.45454,0.938156 0.78358,1.932092 0.97862,2.956169 0.10069,0.519144 0.17644,1.04284 0.22699,1.569263 0.0477,0.5878 0.0628,1.1778 0.045,1.767269 v 22.715146 h -8.51384 c 0,0 0.45894,-20.046245 0.45894,-20.046245 0.0208,-0.520415 0.0176,-1.041516 -0.01,-1.561635 z" /><path
       id="path122"
       style="fill:#fc3c00;fill-opacity:1;fill-rule:evenodd;stroke:none"
       d="m 642.26611,58.406618 v 7.513757 H 607.2547 v -7.513757 h 12.99889 V 29.909055 h 9.01363 v 28.497563 z" /><path
       id="path124"
       style="fill:#fc3c00;fill-opacity:1;fill-rule:evenodd;stroke:none"
       d="m 649.75107,65.920375 v -36.01132 h 9.01373 l -0.50016,36.01132 z" /><path
       id="path126"
       style="fill:#fc3c00;fill-opacity:1;fill-rule:evenodd;stroke:none"
       d="m 743.24307,29.909055 h 8.01372 v 36.01132 h -8.01372 V 44.898532 l -16.40871,21.021843 h -9.58906 v -36.01132 h 8.01371 v 24.00582 l 17.98406,-22.801221 z" /><path
       id="path128"
       style="fill:#fc3c00;fill-opacity:1;fill-rule:evenodd;stroke:none"
       d="m 802.23803,44.407815 h 41.01089 v 4.514014 h -41.01089 z" /><path
       id="path136"
       style="fill:url(#linearGradient134);fill-opacity:1;fill-rule:evenodd;stroke:none"
       d="m 198.21276,182.46245 c 2.29642,6.20065 3.72597,12.38758 4.07659,17.42977 0.54506,7.83843 -0.39029,22.61332 -1.00269,30.33171 5.35617,-10.21154 12.65848,-24.78386 16.5152,-34.06915 3.95123,-9.58405 6.61611,-19.64907 7.92517,-29.93266 1.20843,-9.30057 1.28458,-18.71337 0.22676,-28.03228 -1.54673,-13.55734 -5.7204,-26.94518 -12.88088,-38.612504 -3.69731,-6.024416 -8.10154,-11.341468 -13.25134,-16.28433 -1.9933,-1.913828 -4.08986,-3.717127 -6.28026,-5.401801 -2.2048,-1.69871 -4.52356,-3.244133 -6.93995,-4.625377 -2.2091,-1.263995 -4.51659,-2.347695 -6.89999,-3.24055 -2.46644,-0.926908 -5.02586,-1.584455 -7.63365,-1.961183 -7.06135,-1.015398 -13.7975,0.489039 -19.7708,4.342466 -6.19565,3.996865 -11.28024,8.966355 -14.81442,15.580069 -1.65227,3.109448 -2.96404,6.388185 -3.91248,9.779208 -0.8512,3.017562 -1.51661,6.084472 -1.99246,9.183472 -0.2207,1.18001 -0.31528,2.38014 -0.28215,3.58015 l 0.009,17.01443 0.29975,0.29475 0.65539,0.61995 c 0,0 5.97981,-16.29907 31.02716,-18.00254 0,0 43.59764,-0.72907 48.59804,44.17834 0,0 4.94724,29.60917 -12.12945,27.5731 -0.85625,-0.10209 -1.62749,0.0254 -1.54246,0.25496 z" /><path
       id="path144"
       style="fill:url(#linearGradient142);fill-opacity:1;fill-rule:evenodd;stroke:none"
       d="m 115.466,41.327372 c 0,0 -41.985269,16.282457 -44.95951,87.912078 0,0 -3.222094,53.04063 33.70806,91.70575 0,0 -64.993753,-50.59149 -63.450465,-105.08983 0,0 -4.341839,-75.17568 74.701915,-74.527998 z" /></g></svg>